# AST/ASF file generated using VICON BodyLanguage
# -----------------------------------------------
:version 1.10
:name VICON
:units
  mass 1.0
  length 0.45
  angle deg
:documentation
   .ast/.asf automatically generated from VICON data using
   VICON BodyBuilder and BodyLanguage model FoxedUp or BRILLIANT.MOD
:root
   order TX TY TZ RX RY RZ
   axis XYZ
   position 0 0 0  
   orientation 0 0 0 
:bonedata
  begin
     id 1 
     name lhipjoint
     direction 0.707368 -0.647095 0.284426 
     length 2.60678 
     axis 0 0 0  XYZ
  end
  begin
     id 2 
     name lfemur
     direction 0.34202 -0.939693 0  
     length 6.63812  
     axis 0 0 20  XYZ
    dof rx ry rz
    limits (-160.0 20.0)
           (-70.0 70.0)
           (-60.0 70.0)
  end
  begin
     id 3 
     name ltibia
     direction 0.34202 -0.939693 0   
     length 7.51178   
     axis 0 0 20   XYZ
    dof rx
    limits (-10.0 170.0)
  end
  begin
     id 4 
     name lfoot
     direction 0.121251 -0.333133 0.935051   
     length 1.83716   
     axis -90 7.62852e-016 20   XYZ
    dof rx rz
    limits (-45.0 90.0)
           (-70.0 20.0)
  end
  begin
     id 5 
     name ltoes
     direction 1.53611e-011 -4.21962e-011 1   
     length 0.916133   
     axis -90 7.62852e-016 20   XYZ
    dof rx
    limits (-90.0 20.0)
  end
  begin
     id 6 
     name rhipjoint
     direction -0.692419 -0.660507 0.290321   
     length 2.55385  
     axis 0 0 0  XYZ 
  end
  begin
     id 7 
     name rfemur
     direction -0.34202 -0.939693 0   
     length 7.29079   
     axis 0 0 -20   XYZ
    dof rx ry rz
    limits (-160.0 20.0)
           (-70.0 70.0)
           (-70.0 60.0)
  end
  begin
     id 8 
     name rtibia
     direction -0.34202 -0.939693 0   
     length 7.47143   
     axis 0 0 -20   XYZ
    dof rx
    limits (-10.0 170.0)
 end
 begin
     id 9 
     name rfoot
     direction -0.119907 -0.329441 0.936532   
     length 1.79439  
     axis -90 -7.62852e-016 -20   XYZ
    dof rx rz
    limits (-45.0 90.0)
           (-20.0 70.0)
  end
  begin
     id 10 
     name rtoes
     direction -1.53571e-011 -4.21961e-011 1   
     length 0.896039   
     axis -90 -7.62852e-016 -20   XYZ
    dof rx
    limits (-90.0 20.0)
  end
  begin
     id 11 
     name lowerback
     direction 0.0367721 0.992912 -0.113016   
     length 1.73542   
     axis 0 0 0   XYZ
    dof rx ry rz
    limits (-20.0 45.0)
           (-30.0 30.0)
           (-30.0 30.0)
  end
  begin
     id 12 
     name upperback
     direction -0.000314626 0.990678 0.136227   
     length 1.7514   
     axis 0 0 0   XYZ
    dof rx ry rz
    limits (-20.0 45.0)
           (-30.0 30.0)
           (-30.0 30.0)
  end
  begin
     id 13 
     name thorax
     direction -0.0226159 0.981151 0.191917   
     length 1.71471   
     axis 0 0 0   XYZ
    dof rx ry rz
    limits (-20.0 45.0)
           (-30.0 30.0)
           (-30.0 30.0)
  end
  begin
     id 14 
     name lowerneck
     direction 0.0219333 0.998071 0.0580739   
     length 1.65882   
     axis 0 0 0   XYZ
    dof rx ry rz
    limits (-20.0 45.0)
           (-30.0 30.0)
           (-30.0 30.0)
  end
  begin
     id 15 
     name upperneck
     direction 0.0384529 0.980058 -0.194957   
     length 1.6612   
     axis 0 0 0   XYZ
    dof rx ry rz
    limits (-20.0 45.0)
           (-30.0 30.0)
           (-30.0 30.0)
  end
  begin
     id 16
     name head
     direction 0.00592123 0.997421 -0.0715234  
     length 1.68077  
     axis 0 0 0   XYZ
    dof rx ry rz
    limits (-20.0 45.0)
           (-30.0 30.0)
           (-30.0 30.0)
  end
  begin
     id 17 
     name lclavicle
     direction 0.904803 0.417826 0.0821728  
     length 3.42227  
     axis 0 0 0   XYZ
    dof ry rz
    limits (-20.0 10.0)
           (0.0 20.0)
  end
  begin
     id 18 
     name lhumerus
     direction 1 -4.48965e-011 -2.68786e-027   
     length 5.11878   
     axis -180 -30 -90   XYZ
    dof rx ry rz
    limits (-60.0 90.0)
           (-90.0 90.0)
           (-90.0 90.0)
  end
  begin
     id 19
     name lradius
     direction 1 -4.48965e-011 2.61168e-028   
     length 3.59971   
     axis -180 -30 -90   XYZ
    dof rx
    limits (-10.0 170.0)
  end
  begin
     id 20
     name lwrist
     direction 1 -4.48965e-011 1.58672e-027   
     length 1.79985   
     axis -1.65735e-015 90 90   XYZ
    dof ry
    limits (-180.0 0.0)
 end
  begin
     id 21 
     name lhand
     direction 1 -4.48942e-011 3.17344e-027   
     length 0.62877   
     axis -2.02492e-015 90 90   XYZ
    dof rx rz
    limits (-90.0 90.0)
           (-45.0 45.0)
  end
  begin
     id 22 
     name lfingers
     direction 1 -4.49011e-011 6.34687e-027   
     length 0.506931   
     axis -4.04985e-015 90 90   XYZ
    dof rx
    limits (0.0 90.0)
  end
  begin
     id 23
     name lthumb
     direction 0.707107 -6.34982e-011 0.707107   
     length 0.727854   
     axis -90 45 2.85299e-015   XYZ
    dof rx rz
    limits (-45.0 45.0)
           (-45.0 45.0)
  end
  begin
     id 24 
     name rclavicle
     direction -0.945647 0.32488 0.0143075   
     length 3.52737  
     axis 0 0 0   XYZ 
    dof ry rz
    limits (-10.0 20.0)
           (-20.0 0.0)
  end
  begin
     id 25 
     name rhumerus
     direction -1 -4.48962e-011 1.92182e-027  
     length 5.4902   
     axis -180 30 90   XYZ
    dof rx ry rz
    limits (-90.0 60.0)
           (-90.0 90.0)
           (-90.0 90.0)
  end
  begin
     id 26 
     name rradius
     direction -1 -4.48967e-011 -5.97193e-028   
     length 3.20659   
     axis -180 30 90   XYZ
    dof rx
    limits (-10.0 170.0)
  end
  begin
     id 27 
     name rwrist
     direction -1 -4.48964e-011 1.58672e-027   
     length 1.6033   
     axis -1.65735e-015 -90 -90   XYZ
    dof ry
    limits (-180.0 0.0)
  end
  begin
     id 28
     name rhand
     direction -1 -4.49006e-011 3.17344e-027   
     length 0.691885   
     axis -2.02492e-015 -90 -90   XYZ
    dof rx rz
    limits (-90.0 90.0)
           (-45.0 45.0)
  end
  begin
     id 29
     name rfingers
     direction -1 -4.48908e-011 6.34687e-027   
     length 0.557815   
     axis -4.04985e-015 -90 -90   XYZ
    dof rx
    limits (0.0 90.0)
  end
  begin
     id 30
     name rthumb
     direction -0.707107 -6.34999e-011 0.707107   
     length 0.800915   
     axis -90 -45 -2.85299e-015   XYZ
    dof rx rz
    limits (-45.0 45.0)
           (-45.0 45.0)
  end
:hierarchy
  begin
    root lhipjoint rhipjoint lowerback
    lhipjoint lfemur
    lfemur ltibia
    ltibia lfoot
    lfoot ltoes
    rhipjoint rfemur
    rfemur rtibia
    rtibia rfoot
    rfoot rtoes
    lowerback upperback
    upperback thorax
    thorax lowerneck lclavicle rclavicle
    lowerneck upperneck
    upperneck head
    lclavicle lhumerus
    lhumerus lradius
    lradius lwrist
    lwrist lhand lthumb
    lhand lfingers
    rclavicle rhumerus
    rhumerus rradius
    rradius rwrist
    rwrist rhand rthumb
    rhand rfingers
  end

#!OML:ASF I:\Actors\actors\Patient Classification 1\Patient 1\Session 1\Subject1.ASF
:FULLY-SPECIFIED
:DEGREES
44
root 0.586513 17.4345 9.48482 10.7756 -1.65295 -8.74826
lowerback -2.87969 0.85274 5.48949
upperback -10.8835 1.45532 1.96179
thorax -9.87585 0.338047 -1.04493
lowerneck -1.39207 -11.6505 -10.2417
upperneck 14.3955 -17.0508 11.3412
head 6.45191 -8.25302 3.97511
rclavicle 1.92821e-014 4.77083e-015
rhumerus -45.5713 -21.3518 -71.8671
rradius 18.7074
rwrist 48.063
rhand 7.23614 -30.5049
rfingers 7.12502
rthumb 32.5004 -57.6092
lclavicle 1.92821e-014 4.77083e-015
lhumerus -46.504 17.0217 74.9827
lradius 17.5771
lwrist -30.8034
lhand -18.0244 -11.2391
lfingers 7.12502
lthumb 8.24676 18.5799
rfemur -4.93909 25.4081 25.1978
rtibia 1.67754
rfoot -11.2089 -25.433
rtoes 3.41933
lfemur 6.15018 -48.134 -13.1931
ltibia -5.01747
lfoot -26.6912 56.0889
ltoes 13.9438
45
root 0.586147 17.4348 9.48439 10.7835 -1.64378 -8.72853
lowerback -2.8867 0.845519 5.47528
upperback -10.8872 1.44458 1.95874
thorax -9.87644 0.333776 -1.03962
lowerneck -1.32387 -11.5949 -10.2415
upperneck 14.328 -16.9823 11.4101
head 6.41684 -8.22016 4.00981
rclavicle 1.5704e-014 -3.97569e-016
rhumerus -45.6286 -21.4292 -71.8152
rradius 18.7296
rwrist 48.1177
rhand 7.31665 -30.4949
rfingers 7.12502
rthumb 32.5771 -57.5834
lclavicle 1.5704e-014 -3.97569e-016
lhumerus -46.5155 16.983 75.0085
lradius 17.5897
lwrist -30.7917
lhand -17.9889 -11.1067
lfingers 7.12502
lthumb 8.28106 18.711
rfemur -4.95757 25.391 25.1685
rtibia 1.6974
rfoot -11.2566 -25.4076
rtoes 3.52543
lfemur 6.13693 -48.1915 -13.2141
ltibia -4.99757
lfoot -26.7039 56.1077
ltoes 13.87
46
root 0.585624 17.4344 9.48381 10.766 -1.63427 -8.67453
lowerback -2.86747 0.837861 5.43579
upperback -10.8827 1.43312 1.94169
thorax -9.883 0.330578 -1.03562
lowerneck -1.3361 -11.6192 -10.1525
upperneck 14.312 -16.9997 11.3013
head 6.39854 -8.2302 3.96072
rclavicle 1.19271e-014 1.15295e-014
rhumerus -45.6768 -21.4721 -71.7876
rradius 18.7239
rwrist 48.1457
rhand 7.34101 -30.4697
rfingers 7.12502
rthumb 32.6002 -57.5534
lclavicle 1.19271e-014 1.15295e-014
lhumerus -46.5201 16.9367 75.0395
lradius 17.6019
lwrist -30.716
lhand -17.8881 -10.5852
lfingers 7.12502
lthumb 8.37833 19.2286
rfemur -4.92787 25.4153 25.1192
rtibia 1.68376
rfoot -11.2561 -25.4544
rtoes 3.42065
lfemur 6.17863 -48.2721 -13.3151
ltibia -4.98784
lfoot -26.8655 56.1371
ltoes 13.9969
47
root 0.584799 17.4338 9.4835 10.7502 -1.62679 -8.63694
lowerback -2.85802 0.837616 5.41587
upperback -10.8731 1.43086 1.92019
thorax -9.87716 0.330311 -1.04761
lowerneck -1.37115 -11.6491 -10.0151
upperneck 14.3097 -17.0147 11.1177
head 6.3774 -8.23977 3.88023
rclavicle -1.59028e-014 3.18055e-015
rhumerus -45.6899 -21.4437 -71.8503
rradius 18.7091
rwrist 47.9804
rhand 7.29304 -30.529
rfingers 7.12502
rthumb 32.5546 -57.6221
lclavicle -1.59028e-014 3.18055e-015
lhumerus -46.506 16.9244 75.0314
lradius 17.5699
lwrist -30.678
lhand -17.891 -9.88577
lfingers 7.12502
lthumb 8.37553 19.9282
rfemur -4.90537 25.4173 25.0877
rtibia 1.66823
rfoot -11.2121 -25.4929
rtoes 3.18901
lfemur 6.234 -48.3818 -13.4046
ltibia -4.98552
lfoot -27.0995 56.1905
ltoes 14.1876
48
root 0.583712 17.4332 9.48267 10.7571 -1.6361 -8.65366
lowerback -2.8652 0.847772 5.44301
upperback -10.868 1.44434 1.91783
thorax -9.86617 0.334755 -1.06582
lowerneck -1.35404 -11.6141 -9.96034
upperneck 14.3003 -16.958 11.0537
head 6.35461 -8.21425 3.86019
rclavicle 6.85807e-015 1.19271e-015
rhumerus -45.6895 -21.4035 -71.915
rradius 18.684
rwrist 47.8263
rhand 7.22344 -30.6239
rfingers 7.12502
rthumb 32.4883 -57.7307
lclavicle 6.85807e-015 1.19271e-015
lhumerus -46.5157 16.9434 74.9974
lradius 17.5518
lwrist -30.7849
lhand -17.8469 -9.86231
lfingers 7.12502
lthumb 8.41808 19.9499
rfemur -4.93367 25.4053 25.1003
rtibia 1.68751
rfoot -11.1699 -25.471
rtoes 3.16463
lfemur 6.24443 -48.4578 -13.389
ltibia -4.99625
lfoot -27.219 56.2762
ltoes 14.312
49
root 0.582611 17.4321 9.48147 10.7893 -1.64434 -8.67673
lowerback -2.89052 0.860429 5.47287
upperback -10.8708 1.4609 1.92386
thorax -9.85342 0.340898 -1.07645
lowerneck -1.32044 -11.5724 -9.99903
upperneck 14.2932 -16.9067 11.1
head 6.34819 -8.19022 3.88806
rclavicle 1.19271e-014 -5.40694e-014
rhumerus -45.7272 -21.4523 -71.8817
rradius 18.6807
rwrist 47.8609
rhand 7.20868 -30.6704
rfingers 7.12502
rthumb 32.4743 -57.7801
lclavicle 1.19271e-014 -5.40694e-014
lhumerus -46.5285 16.9815 74.9563
lradius 17.5456
lwrist -30.9709
lhand -17.7106 -10.391
lfingers 7.12502
lthumb 8.54965 19.4159
rfemur -4.98348 25.4688 25.1113
rtibia 1.71096
rfoot -11.2024 -25.4957
rtoes 3.32111
lfemur 6.18263 -48.4629 -13.3094
ltibia -5.00465
lfoot -27.0853 56.3498
ltoes 14.1452
50
root 0.58177 17.4314 9.48057 10.8192 -1.63385 -8.67512
lowerback -2.91864 0.855817 5.46116
upperback -10.8769 1.45331 1.9347
thorax -9.84441 0.338939 -1.05757
lowerneck -1.31342 -11.5531 -10.0795
upperneck 14.3251 -16.8955 11.194
head 6.37097 -8.18306 3.92993
rclavicle -3.57812e-015 3.61788e-014
rhumerus -45.8107 -21.6041 -71.7455
rradius 18.7273
rwrist 48.0298
rhand 7.28197 -30.6473
rfingers 7.12502
rthumb 32.5441 -57.7426
lclavicle -3.57812e-015 3.61788e-014
lhumerus -46.5484 17.0386 74.9117
lradius 17.541
lwrist -31.0903
lhand -17.6233 -10.6512
lfingers 7.12502
lthumb 8.63387 19.1522
rfemur -5.02414 25.4714 25.0997
rtibia 1.72426
rfoot -11.2253 -25.5022
rtoes 3.39011
lfemur 6.10099 -48.4096 -13.2391
ltibia -5.00743
lfoot -26.898 56.316
ltoes 13.9489
51
root 0.581174 17.4311 9.47991 10.8412 -1.62311 -8.67389
lowerback -2.94226 0.840882 5.43774
upperback -10.8832 1.43234 1.95281
thorax -9.83947 0.331691 -1.02379
lowerneck -1.33253 -11.5369 -10.2184
upperneck 14.4178 -16.9049 11.3698
head 6.4321 -8.1818 4.00082
rclavicle 1.16289e-014 -3.10104e-014
rhumerus -45.8739 -21.7047 -71.6478
rradius 18.7806
rwrist 48.0946
rhand 7.34798 -30.6161
rfingers 7.12502
rthumb 32.6069 -57.6985
lclavicle 1.16289e-014 -3.10104e-014
lhumerus -46.5928 17.1714 74.8214
lradius 17.5333
lwrist -31.2141
lhand -17.6244 -10.6488
lfingers 7.12502
lthumb 8.63278 19.1547
rfemur -5.06602 25.395 25.0885
rtibia 1.74119
rfoot -11.2045 -25.4456
rtoes 3.34597
lfemur 6.05322 -48.3685 -13.1939
ltibia -5.01265
lfoot -26.8422 56.2765
ltoes 13.9399
52
root 0.5803 17.431 9.47955 10.8593 -1.62111 -8.67715
lowerback -2.96047 0.827307 5.40881
upperback -10.8852 1.41338 1.97282
thorax -9.83275 0.326108 -0.985151
lowerneck -1.37635 -11.5329 -10.2131
upperneck 14.4951 -16.9032 11.3566
head 6.4623 -8.17813 3.99217
rclavicle -1.44119e-014 2.06736e-014
rhumerus -45.9099 -21.7994 -71.5686
rradius 18.7991
rwrist 48.155
rhand 7.40847 -30.6189
rfingers 7.12502
rthumb 32.6644 -57.6893
lclavicle -1.44119e-014 2.06736e-014
lhumerus -46.6143 17.2784 74.7675
lradius 17.5033
lwrist -31.2394
lhand -17.6856 -10.6513
lfingers 7.12502
lthumb 8.57379 19.1547
rfemur -5.09141 25.3987 25.0817
rtibia 1.74365
rfoot -11.2547 -25.4383
rtoes 3.44909
lfemur 6.00828 -48.3009 -13.147
ltibia -5.01644
lfoot -26.7332 56.2571
ltoes 13.7388
53
root 0.578761 17.4317 9.479 10.853 -1.61838 -8.67789
lowerback -2.94881 0.819255 5.37159
upperback -10.8801 1.40337 1.98899
thorax -9.83499 0.325363 -0.946937
lowerneck -1.44519 -11.5595 -10.0423
upperneck 14.5547 -16.9067 11.0962
head 6.45577 -8.18239 3.8809
rclavicle -6.26172e-015 -7.15625e-015
rhumerus -45.9482 -21.9692 -71.4326
rradius 18.794
rwrist 48.2875
rhand 7.44304 -30.6471
rfingers 7.12502
rthumb 32.6973 -57.7107
lclavicle -6.26172e-015 -7.15625e-015
lhumerus -46.6105 17.2494 74.8191
lradius 17.4857
lwrist -31.1459
lhand -17.7044 -10.7524
lfingers 7.12502
lthumb 8.55563 19.0542
rfemur -5.07911 25.4279 25.0884
rtibia 1.73322
rfoot -11.3092 -25.4554
rtoes 3.6351
lfemur 5.98911 -48.2258 -13.1208
ltibia -5.014
lfoot -26.6565 56.1928
ltoes 13.6002
54
root 0.577523 17.4327 9.47851 10.8308 -1.61785 -8.68184
lowerback -2.92575 0.813536 5.35032
upperback -10.8735 1.39756 2.00271
thorax -9.84191 0.325054 -0.92055
lowerneck -1.49237 -11.5718 -10.0111
upperneck 14.6437 -16.9175 11.0102
head 6.48312 -8.18745 3.84405
rclavicle 8.05078e-015 1.66979e-014
rhumerus -45.9609 -22.0955 -71.3322
rradius 18.7592
rwrist 48.3117
rhand 7.38304 -30.7152
rfingers 7.12502
rthumb 32.6402 -57.7906
lclavicle 8.05078e-015 1.66979e-014
lhumerus -46.6274 17.2129 74.8663
lradius 17.4972
lwrist -31.1593
lhand -17.7157 -10.8815
lfingers 7.12502
lthumb 8.54473 18.9257
rfemur -5.04988 25.4326 25.1117
rtibia 1.72607
rfoot -11.2773 -25.4597
rtoes 3.59251
lfemur 6.03249 -48.2592 -13.1511
ltibia -4.99761
lfoot -26.8567 56.1717
ltoes 13.8863
